<svg width="1297" height="477" viewBox="0 0 1297 477" fill="none" xmlns="http://www.w3.org/2000/svg">
<path d="M158.572 424.96C136.389 425.258 114.368 421.148 93.7866 412.867C74.8086 405.104 57.8121 393.185 44.0474 377.988C29.5091 361.668 18.4548 342.554 11.5614 321.813C3.55127 297.533 -0.346802 272.085 0.0281691 246.521C-0.373644 221.117 3.52582 195.828 11.5614 171.725C18.4103 151.321 29.4074 132.556 43.8608 116.608C57.6785 101.728 74.6824 90.1655 93.6001 82.7854C114.322 74.8234 136.375 70.8981 158.572 71.2211C180.631 70.9684 202.539 74.8922 223.14 82.7854C242.258 90.1648 259.41 101.869 273.252 116.981C287.601 132.947 298.567 151.654 305.489 171.974C313.547 196.007 317.448 221.238 317.022 246.583C317.397 272.148 313.499 297.595 305.489 321.876C298.651 342.6 287.661 361.714 273.19 378.05C259.327 393.304 242.196 405.227 223.077 412.929C202.573 421.133 180.655 425.221 158.572 424.96ZM158.572 347.243C179.297 347.243 195.483 338.238 207.13 320.228C218.777 302.218 224.621 277.649 224.663 246.521C224.663 215.434 218.798 191.372 207.068 174.337C201.84 166.298 194.635 159.738 186.143 155.285C177.651 150.832 168.157 148.636 158.572 148.907C148.982 148.63 139.482 150.824 130.984 155.277C122.485 159.73 115.275 166.293 110.045 174.337C98.3356 191.331 92.4706 215.392 92.4498 246.521C92.4291 277.649 98.2735 302.208 109.983 320.197C121.651 338.269 137.847 347.294 158.572 347.274V347.243Z" fill="white"/>
<path d="M521.7 424.96C499.548 425.242 477.561 421.132 457.007 412.867C438.034 405.096 421.039 393.178 407.268 377.988C392.796 361.658 381.815 342.542 375 321.814C366.964 297.539 363.055 272.088 363.436 246.521C363.028 221.114 366.939 195.823 375 171.726C381.825 151.318 392.813 132.549 407.268 116.608C421.092 101.735 438.094 90.1733 457.007 82.7857C498.745 67.356 544.623 67.356 586.36 82.7857C605.488 90.1648 622.65 101.868 636.504 116.981C650.866 132.979 661.842 151.717 668.772 172.068C676.83 196.101 680.731 221.332 680.305 246.676C680.68 272.241 676.782 297.689 668.772 321.969C661.933 342.687 650.955 361.798 636.504 378.143C622.629 393.397 605.488 405.32 586.36 413.023C565.802 421.219 543.829 425.275 521.7 424.96ZM521.7 347.243C542.424 347.243 558.6 338.238 570.226 320.228C581.853 302.218 587.718 277.639 587.822 246.49C587.822 215.403 581.956 191.341 570.226 174.306C564.79 166.463 557.534 160.055 549.081 155.629C540.627 151.203 531.226 148.891 521.684 148.891C512.142 148.891 502.741 151.203 494.287 155.629C485.834 160.055 478.578 166.463 473.142 174.306C461.411 191.3 455.557 215.361 455.577 246.49C455.598 277.618 461.453 302.187 473.142 320.197C484.872 338.269 501.058 347.295 521.7 347.274V347.243Z" fill="white"/>
<path d="M741.049 418.649V77.5315L865.956 77.5315C883.781 77.4558 901.562 79.3005 918.991 83.0339C934.81 86.2945 949.805 92.724 963.072 101.935C975.819 111.044 986.166 123.108 993.227 137.094C1000.75 151.601 1004.51 169.528 1004.51 190.875C1004.51 211.89 1000.75 229.91 993.227 244.935C986.165 259.428 975.844 272.09 963.072 281.929C950.043 291.773 935.279 299.081 919.55 303.472C902.824 308.209 885.517 310.584 868.133 310.529H831.326V418.649H741.049ZM831.201 239.153H863.749C881.593 239.153 894.805 234.956 903.385 226.563C911.965 218.169 916.245 206.273 916.224 190.875C916.224 175.497 911.499 164.658 902.048 158.358C892.598 152.057 879.127 148.949 861.635 149.032H831.201V239.153Z" fill="white"/>
<path d="M1163.02 424.961C1140.21 424.763 1117.59 420.771 1096.09 413.148C1073.05 405.205 1051.89 392.614 1033.92 376.154L1085.34 314.229C1097.42 323.924 1110.75 331.953 1124.97 338.104C1137.58 343.874 1151.24 346.996 1165.11 347.275C1178.76 347.275 1188.65 345.202 1194.76 341.057C1197.73 339.144 1200.15 336.494 1201.78 333.366C1203.42 330.239 1204.21 326.74 1204.09 323.213C1204.25 319.463 1203.15 315.767 1200.98 312.706C1198.41 309.444 1195.23 306.71 1191.62 304.654C1187.01 301.917 1182.19 299.548 1177.2 297.566C1171.58 295.287 1165.11 292.748 1157.77 289.95L1115.24 272.106C1105.98 268.518 1097.18 263.854 1089.01 258.21C1080.7 252.496 1073.27 245.594 1066.96 237.724C1060.53 229.599 1055.48 220.473 1052.01 210.709C1048.25 199.942 1046.39 188.603 1046.51 177.198C1046.37 162.929 1049.57 148.826 1055.84 136.007C1062.25 123.185 1071.22 111.812 1082.2 102.589C1094.03 92.5295 1107.61 84.7412 1122.27 79.6155C1138.71 73.8757 1156.02 71.0356 1173.44 71.222C1193.8 71.3555 1213.97 75.0917 1233.03 82.2579C1253.37 89.6589 1271.82 101.488 1287.03 116.889L1241.74 173.56C1231.38 166.16 1220.2 159.994 1208.41 155.188C1197.27 150.93 1185.42 148.82 1173.5 148.971C1162.31 148.971 1153.56 150.888 1147.26 154.722C1144.28 156.485 1141.83 159.029 1140.19 162.081C1138.54 165.133 1137.77 168.575 1137.94 172.037C1137.94 180.12 1142.41 186.306 1151.33 190.689C1160.26 195.073 1172.6 200.233 1188.33 206.233L1229.8 222.491C1251.12 230.885 1267.57 242.605 1279.13 257.651C1290.7 272.697 1296.44 292.074 1296.36 315.783C1296.35 330.272 1293.22 344.59 1287.2 357.768C1281.18 370.946 1272.39 382.676 1261.44 392.164C1249.15 402.659 1235 410.757 1219.73 416.039C1201.48 422.274 1182.3 425.293 1163.02 424.961Z" fill="white"/>
<path d="M392.874 456.637C392.874 461.021 366.419 464.565 333.809 464.565C301.199 464.565 274.744 461.021 274.744 456.637C274.744 452.254 301.199 448.679 333.809 448.679C366.419 448.679 392.874 452.254 392.874 456.637Z" fill="#26598F"/>
<path d="M335.239 182.699C335.239 186.653 334.067 190.517 331.87 193.805C329.674 197.092 326.552 199.654 322.9 201.167C319.247 202.68 315.228 203.076 311.351 202.304C307.473 201.533 303.911 199.629 301.116 196.834C298.32 194.038 296.417 190.477 295.645 186.599C294.874 182.722 295.27 178.702 296.783 175.05C298.296 171.397 300.858 168.276 304.145 166.079C307.432 163.883 311.297 162.71 315.25 162.71C320.552 162.71 325.636 164.816 329.384 168.565C333.133 172.314 335.239 177.398 335.239 182.699Z" fill="#43494C"/>
<path d="M365.86 179.374C365.86 183.327 364.688 187.192 362.491 190.479C360.295 193.766 357.173 196.328 353.521 197.841C349.868 199.354 345.849 199.75 341.972 198.979C338.094 198.207 334.532 196.304 331.737 193.508C328.941 190.713 327.038 187.151 326.266 183.273C325.495 179.396 325.891 175.377 327.404 171.724C328.917 168.072 331.479 164.95 334.766 162.754C338.053 160.557 341.918 159.385 345.871 159.385C351.17 159.393 356.25 161.502 359.997 165.248C363.743 168.995 365.852 174.075 365.86 179.374Z" fill="#43494C"/>
<path d="M325.882 176.482C334.912 176.482 342.233 169.161 342.233 160.131C342.233 151.1 334.912 143.779 325.882 143.779C316.851 143.779 309.53 151.1 309.53 160.131C309.53 169.161 316.851 176.482 325.882 176.482Z" fill="#43494C"/>
<path d="M362.938 363.315C361.508 373.574 348.265 453.468 344.969 452.193C341.674 450.919 339.84 370.528 341.27 360.269C342.7 350.01 348.731 342.394 354.7 343.233C360.668 344.072 364.399 353.057 362.938 363.315Z" fill="#FA968C"/>
<path d="M366.607 289.11C366.607 305.648 367.011 363.222 355.073 363.222C343.136 363.222 323.333 293.556 323.333 277.017C323.333 260.479 341.675 235.05 353.643 235.05C365.612 235.05 366.607 272.447 366.607 289.11Z" fill="#FA968C"/>
<path d="M342.638 433.82C342.493 438.818 341.889 443.792 340.835 448.68C339.343 453.934 340.462 456.141 345.903 456.514C351.343 456.887 364.99 458.939 366.575 457.353C368.161 455.768 361.788 453.25 357.249 451.353C354.812 450.054 352.772 448.12 351.343 445.756C349.915 443.392 349.152 440.686 349.136 437.924L342.638 433.82Z" fill="#FA968C"/>
<path d="M367.695 187.114C371.549 196.719 383.238 223.703 377.456 225.941C371.674 228.18 351.218 204.864 347.364 195.258C343.509 185.652 344.97 176.016 350.472 173.777C355.975 171.539 363.747 177.508 367.695 187.114Z" fill="#FAB9AF"/>
<path d="M368.595 205.642L362.098 191.031L362.626 185.094C362.779 183.603 362.616 182.097 362.15 180.674C361.683 179.25 360.922 177.94 359.917 176.83C358.911 175.719 357.684 174.832 356.314 174.226C354.944 173.62 353.462 173.308 351.963 173.312H314.224C312.892 173.309 311.579 173.625 310.394 174.233C309.209 174.84 308.187 175.722 307.411 176.804C306.636 177.887 306.13 179.139 305.936 180.456C305.742 181.774 305.866 183.118 306.297 184.379L324.141 236.543L329.705 254.386L355.072 258.428L359.207 218.201H359.58C361.091 218.202 362.58 217.842 363.925 217.153C365.269 216.463 366.43 215.463 367.311 214.236C368.192 213.008 368.768 211.588 368.992 210.094C369.215 208.6 369.079 207.073 368.595 205.642Z" fill="#FA968C"/>
<path d="M368.596 205.642L362.098 191.031L362.627 185.094C362.779 183.603 362.617 182.097 362.15 180.674C361.683 179.25 360.923 177.94 359.917 176.83C358.912 175.719 357.685 174.832 356.315 174.226C354.944 173.62 353.462 173.308 351.964 173.312H345.747C345.974 174.69 345.896 176.101 345.52 177.447C345.143 178.792 344.477 180.039 343.567 181.099C342.658 182.16 341.527 183.008 340.255 183.586C338.983 184.163 337.6 184.455 336.203 184.441H336.016C334.619 184.461 333.234 184.173 331.96 183.597C330.686 183.022 329.555 182.172 328.647 181.11C327.739 180.047 327.076 178.798 326.705 177.45C326.335 176.102 326.266 174.689 326.504 173.312H314.069C312.737 173.309 311.425 173.625 310.24 174.233C309.055 174.84 308.032 175.722 307.256 176.804C306.481 177.887 305.975 179.139 305.781 180.456C305.588 181.774 305.711 183.118 306.142 184.379L323.986 236.543L329.55 254.386L354.917 258.428L359.052 218.201H359.425C360.949 218.227 362.457 217.886 363.822 217.207C365.186 216.528 366.368 215.531 367.267 214.3C368.166 213.069 368.756 211.64 368.987 210.133C369.218 208.626 369.084 207.086 368.596 205.642Z" fill="white"/>
<path d="M336.328 362.693C334.867 372.951 321.624 452.845 318.328 451.571C315.033 450.296 313.199 369.905 314.629 359.646C316.059 349.388 322.09 341.771 328.09 342.611C334.089 343.45 337.758 352.434 336.328 362.693Z" fill="#FAB9AF"/>
<path d="M339.996 288.395C339.996 304.964 340.4 362.537 328.431 362.537C316.463 362.537 296.691 292.965 296.691 276.395C296.691 259.826 315.033 234.428 326.97 234.428C338.908 234.428 339.996 271.856 339.996 288.395Z" fill="#FAB9AF"/>
<path d="M362.378 352.092C366.824 334.528 366.606 301.016 366.606 289.017C366.606 272.447 367.414 244.842 357.498 235.049C352.244 235.049 331.384 234.428 326.97 234.428C315.033 234.428 296.691 259.857 296.691 276.395C296.691 288.55 307.323 329.243 317.706 349.978C316.245 352.683 363.124 354.766 362.378 352.092Z" fill="#373C41"/>
<path d="M315.997 433.198C315.904 439.361 315.301 445.506 314.194 451.57C312.701 456.855 301.355 473.673 307.976 473.673C313.92 468.758 319.577 463.506 324.919 457.943C328.68 452.938 322.183 448.213 322.805 437.301L315.997 433.198Z" fill="#FAB9AF"/>
<path d="M357.529 451.353C357.249 451.353 357 451.042 356.72 450.886C354.749 451.999 352.517 452.567 350.254 452.534C348.514 452.603 346.779 452.294 345.169 451.629C343.559 450.963 342.112 449.957 340.928 448.679C339.436 453.933 340.555 456.14 345.995 456.513C351.435 456.886 365.083 458.938 366.668 457.352C368.254 455.767 361.787 453.249 357.529 451.353Z" fill="#AA321E"/>
<path d="M323.334 445.074C323.2 446.188 322.94 447.283 322.557 448.338C322.366 451.505 320.973 454.479 318.661 456.652C316.349 458.825 313.294 460.032 310.122 460.027C306.858 466.493 303.469 473.674 307.697 473.674C313.641 468.759 319.298 463.507 324.639 457.944C327.468 454.307 324.857 450.763 323.334 445.074Z" fill="#AA321E"/>
<path d="M319.976 194.761C317.706 204.864 306.639 233.495 300.733 232.065C294.826 230.635 296.318 199.922 298.619 189.818C300.919 179.715 307.51 172.596 313.385 173.933C319.261 175.27 322.245 184.658 319.976 194.761Z" fill="#FA968C"/>
<path d="M355.54 124.598C354.232 124.272 352.866 124.253 351.549 124.545C350.233 124.836 349.002 125.429 347.954 126.277C344.916 128.915 341.064 130.429 337.043 130.567H334.898C333.366 130.565 331.866 131.004 330.576 131.83C329.286 132.657 328.261 133.837 327.623 135.23L323.333 144.805H351.032V141.385C351.846 141.645 352.695 141.781 353.55 141.789C355.671 141.778 357.716 140.995 359.302 139.586C360.888 138.178 361.908 136.241 362.171 134.136C362.433 132.031 361.921 129.902 360.729 128.147C359.538 126.392 357.748 125.131 355.695 124.598H355.54Z" fill="#43494C"/>
<path d="M343.322 176.45L326.473 174.678L335.239 157.487L343.322 159.135V176.45Z" fill="#FA968C"/>
<path d="M353.053 150.803C357.877 150.803 361.788 146.892 361.788 142.068C361.788 137.244 357.877 133.333 353.053 133.333C348.228 133.333 344.317 137.244 344.317 142.068C344.317 146.892 348.228 150.803 353.053 150.803Z" fill="#43494C"/>
<path d="M357.249 154.939C357.231 156.663 356.703 158.342 355.732 159.767C354.761 161.191 353.39 162.296 351.793 162.943C350.195 163.59 348.441 163.749 346.753 163.402C345.065 163.054 343.517 162.215 342.305 160.99C341.092 159.765 340.27 158.208 339.94 156.516C339.61 154.824 339.789 153.073 340.453 151.482C341.116 149.891 342.236 148.532 343.67 147.576C345.105 146.621 346.79 146.111 348.514 146.11C349.67 146.106 350.815 146.332 351.883 146.776C352.951 147.219 353.92 147.871 354.733 148.693C355.546 149.514 356.188 150.49 356.62 151.563C357.052 152.635 357.266 153.783 357.249 154.939Z" fill="#43494C"/>
<path d="M353.549 143.281C353.549 157.643 341.55 160.876 333.529 160.876C325.509 160.876 326.068 149.001 326.068 142.815C326.068 136.629 332.503 133.489 340.555 133.489C348.607 133.489 353.549 137.095 353.549 143.281Z" fill="#43494C"/>
<path d="M353.115 147.788C353.115 156.306 350.286 169.922 343.789 169.922C337.292 169.922 330.328 160.161 330.328 151.643C330.328 143.125 334.121 138.182 340.587 138.182C347.053 138.182 353.115 139.27 353.115 147.788Z" fill="#FAB9AF"/>
<path d="M330.607 148.318H346.99C349.203 148.126 351.337 147.4 353.208 146.204C353.208 139.986 350.099 137.064 340.773 138.183C338.112 138.276 335.584 139.372 333.698 141.252C331.812 143.132 330.708 145.657 330.607 148.318Z" fill="#FF9669"/>
<path d="M336.265 134.825H355.197V138.524C355.197 140.692 354.336 142.772 352.803 144.305C351.269 145.839 349.19 146.7 347.021 146.7H328.152V143.001C328.143 141.93 328.347 140.868 328.751 139.877C329.155 138.885 329.752 137.983 330.506 137.223C331.26 136.463 332.157 135.86 333.146 135.448C334.134 135.037 335.195 134.825 336.265 134.825Z" fill="#43494C"/>
<path d="M333.53 153.135V143.809H337.602V149.094C337.586 150.166 337.151 151.189 336.39 151.945C335.629 152.7 334.602 153.127 333.53 153.135Z" fill="#43494C"/>
<path d="M335.084 151.332C335.084 154.13 334.183 156.431 331.975 156.431C329.768 156.431 328.867 153.322 328.867 150.213C328.867 147.104 329.861 146.079 331.975 146.079C334.089 146.079 335.084 148.503 335.084 151.332Z" fill="#FAB9AF"/>
<path d="M378.016 211.392C383.145 206.978 416.906 180.958 419.361 183.787C421.817 186.616 391.974 217.237 386.844 221.651C381.715 226.066 375.56 227.34 373.135 224.511C370.71 221.682 372.886 215.931 378.016 211.392Z" fill="#FA968C"/>
<path d="M422.811 183.414C422.811 183.414 416.252 183.134 415.474 185.124C414.697 187.114 414.604 188.575 417.433 189.756C420.65 190.895 424.083 191.288 427.474 190.906C430.135 190.339 432.626 189.157 434.748 187.456C435.774 185.342 430.925 186.523 428.531 186.958C426.137 187.393 423.433 187.704 423.526 186.492C423.619 185.279 428.251 184.751 428.842 183.383C429.432 182.015 422.811 183.414 422.811 183.414Z" fill="#FA968C"/>
<path d="M266.35 177.197C266.35 177.197 272.008 180.523 271.573 182.606C271.138 184.689 270.485 185.933 267.376 185.373C264.052 184.594 260.954 183.05 258.33 180.865C256.405 178.978 254.966 176.653 254.133 174.088C254.413 171.788 257.833 175.394 259.574 177.197C261.314 179 263.49 180.586 264.05 179.529C264.61 178.472 260.941 175.487 261.252 174.057C261.563 172.627 266.35 177.197 266.35 177.197Z" fill="#FAB9AF"/>
<path d="M290.195 225.009C286.527 219.32 265.325 182.388 268.434 180.368C271.543 178.347 297.842 211.952 301.573 217.61C305.303 223.268 305.707 229.547 302.599 231.568C299.49 233.589 293.894 230.667 290.195 225.009Z" fill="#FAB9AF"/>
<path d="M966.151 55.3677C975.611 55.3677 983.28 47.6989 983.28 38.2388C983.28 28.7788 975.611 21.1099 966.151 21.1099C956.691 21.1099 949.022 28.7788 949.022 38.2388C949.022 47.6989 956.691 55.3677 966.151 55.3677Z" fill="#43494C"/>
<path d="M939.727 79.8634C936.867 72.216 942.214 55.5845 942.214 55.5845L929.53 35.8131C928.828 34.4506 928.531 32.9154 928.674 31.3893C928.818 29.8632 929.395 28.4101 930.339 27.202L931.116 26.2072C933.806 23.0145 935.223 18.9406 935.095 14.7672C935.011 13.3495 935.272 11.9325 935.857 10.6383C936.442 9.34404 937.333 8.21127 938.452 7.33744C939.673 6.38195 941.129 5.77362 942.666 5.57665C944.204 5.37968 945.766 5.60136 947.188 6.2183C948.399 6.76126 949.47 7.57297 950.32 8.59182C951.171 9.61067 951.778 10.8099 952.095 12.0984C952.413 13.3869 952.433 14.7308 952.153 16.0282C951.874 17.3255 951.303 18.5422 950.483 19.5857C949.955 20.25 949.325 20.827 948.618 21.2955L951.322 23.4405L939.323 38.6731C941.696 37.2129 944.401 36.3785 947.185 36.2481C949.968 36.1176 952.74 36.6953 955.239 37.927C958.388 39.5164 960.936 42.085 962.501 45.2468C964.065 48.4086 964.56 51.9926 963.912 55.4601C968.126 56.4652 971.893 58.8239 974.638 62.1749C977.793 65.9977 979.418 70.855 979.198 75.8069C978.978 80.7587 976.929 85.4529 973.447 88.981C969.965 92.509 965.299 94.6201 960.35 94.9055C955.402 95.191 950.523 93.6306 946.659 90.5263C943.421 87.6693 941.024 83.9825 939.727 79.8634Z" fill="#43494C"/>
<path d="M990.864 13.7414C977.117 16.0617 963.251 17.6184 949.332 18.4045C950.192 16.3125 950.645 14.0758 950.668 11.814C962.985 7.31641 975.543 3.50755 988.284 0.405115C994.967 -0.90054 1000.97 1.05794 1001.68 4.72621C1002.4 8.39447 997.548 12.4358 990.864 13.7414Z" fill="#88491C"/>
<path d="M974.077 45.9161C977.186 36.8076 994.564 0.0627502 999.911 1.89688C1005.26 3.73102 996.46 43.5224 993.351 52.5065C990.243 61.4907 983.404 67.5216 978.088 65.7185C972.772 63.9155 970.969 55.0246 974.077 45.9161Z" fill="#88491C"/>
<path d="M1025.03 83.6247C1032.12 74.081 1056.8 40.5692 1066.31 47.7814C1075.82 54.9935 1064.7 103.209 1054.53 116.701C1040.88 134.856 1021.61 129.882 1011.97 122.67C1002.34 115.458 1017.85 93.2617 1025.03 83.6247Z" fill="#FAB9AF"/>
<path d="M945.074 62.9829L978.897 45.6986C984.585 42.8075 994.658 53.5636 994.658 53.5636L1008.55 67.0864C1009.64 68.1428 1010.47 69.4442 1010.95 70.8826C1011.44 72.321 1011.58 73.8548 1011.35 75.3566C1011.13 76.8584 1010.55 78.2848 1009.66 79.5174C1008.77 80.75 1007.61 81.7531 1006.25 82.4434L1005.91 82.5988L1020.58 120.556L996.026 128.545L982.845 115.023L943.022 76.4747C942.067 75.5436 941.347 74.3981 940.923 73.1333C940.498 71.8685 940.382 70.5207 940.582 69.2018C940.783 67.8828 941.295 66.6307 942.076 65.5492C942.857 64.4677 943.885 63.5879 945.074 62.9829Z" fill="#E3792F"/>
<path d="M962.979 65.8741C972.057 70.9724 1007.74 96.6192 1004.76 101.935C1001.78 107.251 961.238 90.1842 952.192 85.0859C943.146 79.9876 938.172 71.563 941.156 66.2472C944.14 60.9313 953.902 60.7759 962.979 65.8741Z" fill="#88491C"/>
<path d="M1087.7 71.6567C1098.11 71.3147 1173.75 65.8434 1172.79 69.9158C1172.04 73.0245 1161.53 73.4908 1154.13 76.1332C1133.93 83.0034 1096.12 93.5108 1088.54 93.7595C1078.13 94.1015 1069.51 89.4695 1069.33 83.3765C1069.14 77.2834 1077.32 71.9986 1087.7 71.6567Z" fill="#FA968C"/>
<path d="M999.723 88.225C1003.05 82.2873 1025.99 46.0399 1029.26 47.8119C1032.52 49.5838 1014.92 88.8778 1011.57 94.8154C1008.21 100.753 1002.89 104.142 999.63 102.214C996.366 100.287 996.397 94.1626 999.723 88.225Z" fill="#FAB9AF"/>
<path d="M999.723 88.2253C1001.93 84.3084 1012.66 67.1794 1020.64 56.5166C1022.69 59.2061 1025.18 61.5202 1028.01 63.3557C1023.36 74.2741 1017.86 84.8133 1011.57 94.878C1008.24 100.816 1002.89 104.204 999.63 102.277C996.366 100.349 996.397 94.163 999.723 88.2253Z" fill="#88491C"/>
<path d="M1026.52 97.054C1038.52 89.8107 1080.05 64.2883 1086.27 74.5781C1092.49 84.8679 1057.27 129.384 1040.32 139.581C1017.47 153.321 1000.38 142.13 994.159 131.84C987.942 121.551 1014.52 104.266 1026.52 97.054Z" fill="#FA968C"/>
<path d="M1047.29 56.8901C1039.25 65.2686 1031.81 74.2023 1025.03 83.625C1019.31 90.919 1014.55 98.9104 1010.85 107.407C1000.1 115.334 990.087 125.095 994.16 131.841C1000.38 142.131 1017.48 153.322 1040.32 139.582C1050.77 133.364 1068.15 113.966 1078.5 97.6452C1063.15 88.681 1051.94 74.0438 1047.29 56.8901Z" fill="#43494C"/>
<path d="M1077.32 55.9571C1082.91 63.5424 1125.38 125.468 1122.27 126.929C1119.16 128.39 1066.31 76.5367 1060.72 68.765C1055.12 60.9932 1054.28 51.7915 1058.85 48.2165C1063.42 44.6415 1071.69 48.03 1077.32 55.9571Z" fill="#FAB9AF"/>
<path d="M1112.94 110.329C1116.75 114.462 1120.91 118.259 1125.38 121.675C1129.64 124.287 1147.82 128.235 1143.35 132.525C1136.22 133.112 1129.07 133.268 1121.93 132.991C1116.24 132.058 1117.85 124.566 1110.73 117.448L1112.94 110.329Z" fill="#FAB9AF"/>
<path d="M1134.14 125.158C1140.08 127.303 1146.05 129.852 1143.28 132.525C1136.16 133.113 1129.01 133.269 1121.86 132.992C1118.1 132.37 1117.51 128.888 1115.49 124.536C1118.15 126.572 1121.37 127.727 1124.72 127.839C1128.06 127.95 1131.36 127.013 1134.14 125.158Z" fill="#C8462D"/>
<path d="M1157.15 68.6407C1162.61 67.2359 1167.93 65.353 1173.06 63.014C1177.39 60.527 1189.54 46.4135 1191.16 52.3822C1188.28 58.949 1184.99 65.3338 1181.33 71.5007C1177.82 76.0394 1172.01 71.0344 1162.43 73.9566L1157.15 68.6407Z" fill="#FA968C"/>
<path d="M1180.34 56.9215C1185.07 52.7247 1190.16 48.6834 1191.16 52.3828C1188.28 58.9496 1185 65.3343 1181.33 71.5013C1179 74.61 1175.65 73.3354 1170.86 73.0556C1173.93 71.7007 1176.5 69.4136 1178.2 66.5182C1179.9 63.6227 1180.65 60.2654 1180.34 56.9215Z" fill="#C8462D"/>
<path d="M1036.92 28.2635L1037.56 28.1351C1037.71 28.1047 1037.81 27.9573 1037.78 27.8058L1037.09 24.3615C1037.06 24.21 1036.91 24.1118 1036.76 24.1422L1036.12 24.2706C1035.97 24.3009 1035.87 24.4484 1035.9 24.5999L1036.59 28.0441C1036.62 28.1956 1036.77 28.2938 1036.92 28.2635Z" fill="#C8E6EB"/>
<path d="M1029.41 50.5483C1029.24 50.6928 1029.03 50.7889 1028.8 50.8269C1028.58 50.8649 1028.35 50.8436 1028.13 50.765C1027.92 50.6865 1027.73 50.5534 1027.58 50.3791C1027.44 50.2047 1027.34 49.9952 1027.3 49.7711L1023.54 29.1294C1023.49 28.8993 1023.51 28.6615 1023.59 28.4421C1023.68 28.2227 1023.82 28.0303 1024 27.8859L1033.8 20.052C1033.97 19.9163 1034.18 19.8277 1034.41 19.7945C1034.63 19.7613 1034.85 19.7845 1035.06 19.8619C1035.28 19.9393 1035.46 20.0685 1035.61 20.2375C1035.76 20.4066 1035.86 20.61 1035.91 20.8291L1040.01 41.3155C1040.06 41.5502 1040.04 41.7933 1039.96 42.0181C1039.88 42.2429 1039.73 42.4407 1039.55 42.59L1029.41 50.5483Z" fill="#C8E6EB"/>
<path d="M1025.65 28.8492C1025.61 28.6191 1025.63 28.3813 1025.71 28.1619C1025.79 27.9426 1025.93 27.7501 1026.12 27.6057L1035.01 20.4868C1035.09 20.4404 1035.18 20.416 1035.27 20.416C1035.37 20.416 1035.46 20.4404 1035.54 20.4868C1035.62 20.5312 1035.7 20.5925 1035.77 20.6672C1035.83 20.7419 1035.88 20.8285 1035.91 20.922L1040.01 41.4084C1040.06 41.6432 1040.04 41.8862 1039.96 42.111C1039.88 42.3358 1039.73 42.5336 1039.55 42.6829L1029.85 50.2993C1029.63 50.1109 1029.48 49.8614 1029.41 49.5843L1025.65 28.8492Z" fill="white"/>
<path d="M1025.43 43.2736C1025.73 44.9837 1025.39 46.7434 1024.47 48.2164C1023.41 49.8951 1022.33 52.0712 1022.92 53.3769C1023.97 55.6462 1025.09 56.983 1028.48 55.5841C1032.13 53.8156 1035.32 51.2308 1037.81 48.0299C1040.02 44.6139 1041.68 40.8679 1042.72 36.9319C1041.79 34.3206 1037 41.4395 1035.38 43.8332C1033.77 46.2269 1030.91 49.3045 1029.97 48.2164C1029.04 47.1284 1028.23 39.108 1026.52 39.1701C1024.81 39.2323 1025.09 41.4084 1025.43 43.2736Z" fill="#FAB9AF"/>
<path d="M1030.44 31.866C1030.81 33.4825 1031.99 34.6016 1033.11 34.3529C1034.23 34.1042 1034.82 32.581 1034.45 30.9644C1034.07 29.3479 1032.86 28.2288 1031.77 28.4775C1030.69 28.7262 1030.06 30.2494 1030.44 31.866Z" fill="#C8E6EB"/>
<path d="M969.57 50.455C969.57 50.455 979.425 58.7241 977.746 61.7707C975.601 65.6565 960.057 60.807 960.057 60.807L953 42.8076L959.591 37.8647L969.57 50.455Z" fill="#FA968C"/>
<path d="M955.892 13.244C957.252 14.311 958.265 15.7576 958.802 17.4007C959.34 19.0438 959.378 20.8095 958.911 22.4742C958.445 24.139 957.495 25.6278 956.182 26.7523C954.869 27.8768 953.251 28.5863 951.535 28.7911C949.818 28.9959 948.079 28.6867 946.538 27.9027C944.998 27.1186 943.724 25.895 942.879 24.3867C942.034 22.8785 941.656 21.1534 941.792 19.4299C941.928 17.7065 942.572 16.0621 943.643 14.705C944.35 13.8029 945.228 13.0492 946.227 12.4873C947.226 11.9253 948.326 11.5662 949.464 11.4304C950.602 11.2947 951.755 11.385 952.859 11.6962C953.962 12.0074 954.992 12.5334 955.892 13.244Z" fill="#43494C"/>
<path d="M951.757 20.4559C963.073 29.3157 958.192 40.7557 953.218 47.0664C948.244 53.3771 939.26 45.6053 934.411 41.7816C929.561 37.9579 930.96 30.8701 935.934 24.5283C940.908 18.1866 946.908 16.6322 951.757 20.4559Z" fill="#43494C"/>
<path d="M955.052 23.5654C961.736 28.8191 970.596 39.4509 966.71 44.5491C962.824 49.6474 950.731 49.1189 944.016 43.8341C937.302 38.5493 935.778 32.5806 939.758 27.4824C943.737 22.3841 948.338 18.3117 955.052 23.5654Z" fill="#FAB9AF"/>
<path d="M941.53 41.5963L951.664 28.7263C952.814 26.8921 953.527 24.818 953.747 22.6643C948.96 18.8717 944.701 19.3691 939.758 27.4828C938.23 29.6291 937.564 32.271 937.892 34.885C938.221 37.499 939.519 39.8943 941.53 41.5963Z" fill="#43494C"/>
<path d="M934.376 28.765L946.065 13.8729L948.975 16.1571C949.822 16.8216 950.529 17.6468 951.056 18.5853C951.583 19.5238 951.919 20.557 952.046 21.6258C952.173 22.6946 952.087 23.7779 951.794 24.8136C951.501 25.8493 951.007 26.8169 950.339 27.661L938.688 42.5042L935.729 40.1817C934.036 38.853 932.941 36.9063 932.683 34.7698C932.426 32.6334 933.028 30.4822 934.357 28.7895L934.376 28.765Z" fill="#43494C"/>
<path d="M947.124 42.2791L939.756 36.4969L942.274 33.3882L946.44 36.6523C947.256 37.3222 947.782 38.2807 947.91 39.3286C948.037 40.3766 947.756 41.4333 947.124 42.2791Z" fill="#43494C"/>
<path d="M946.689 39.9478C948.896 41.6886 950.14 43.8025 948.741 45.6056C947.342 47.4086 944.14 46.1652 941.933 44.4243C939.726 42.6834 939.259 41.098 940.689 39.2949C942.119 37.4919 944.451 38.2069 946.689 39.9478Z" fill="#FAB9AF"/>
<path d="M962.202 68.7028C962.239 73.0527 960.983 77.3154 958.592 80.9498C956.202 84.5842 952.785 87.4262 948.777 89.1151C944.768 90.804 940.347 91.2635 936.077 90.4353C931.807 89.6071 927.879 87.5286 924.792 84.4636C921.705 81.3987 919.598 77.4855 918.74 73.2211C917.881 68.9566 918.309 64.5332 919.97 60.5125C921.63 56.4918 924.448 53.0551 928.065 50.6389C931.682 48.2227 935.936 46.9359 940.286 46.9419C946.069 46.9499 951.615 49.2402 955.719 53.315C959.823 57.3898 962.153 62.9198 962.202 68.7028Z" fill="#43494C"/>
<path d="M940.285 47.0665C940.291 49.1877 939.668 51.2631 938.495 53.0302C937.321 54.7974 935.65 56.1768 933.693 56.9943C931.736 57.8117 929.58 58.0303 927.498 57.6225C925.417 57.2147 923.503 56.1988 921.998 54.7033C920.494 53.2077 919.467 51.2996 919.047 49.2204C918.627 47.1412 918.833 44.9841 919.64 43.022C920.446 41.06 921.815 39.381 923.576 38.1974C925.336 37.0138 927.408 36.3788 929.529 36.3726C930.937 36.3685 932.333 36.6419 933.635 37.1771C934.938 37.7123 936.123 38.4989 937.122 39.4919C938.12 40.4849 938.914 41.6649 939.457 42.9646C939.999 44.2643 940.281 45.6581 940.285 47.0665Z" fill="#43494C"/>
<path d="M610.452 152.98C618.659 149.871 658.885 133.426 657.082 128.95C655.279 124.473 612.752 133.675 604.576 136.783C596.401 139.892 591.054 145.799 592.67 150.306C594.287 154.814 602.276 155.964 610.452 152.98Z" fill="#FAB9AF"/>
<path d="M657.985 168.15C647.478 162.368 596.433 142.161 592.702 149.063C588.972 155.964 633.768 187.393 644.276 193.175C654.783 198.957 666.348 198.056 670.14 191.123C673.933 184.191 668.399 174.088 657.985 168.15Z" fill="#FAB9AF"/>
<path d="M622.484 178.689C629.487 183.884 636.75 188.719 644.245 193.176C654.721 198.958 666.317 198.057 670.109 191.124C673.902 184.192 668.399 174.089 657.985 168.151C649.828 164.099 641.441 160.529 632.867 157.457C623.261 164.079 622.484 178.689 622.484 178.689Z" fill="#E3792F"/>
<path d="M683.507 477C716.197 477 742.697 475.204 742.697 472.99C742.697 470.775 716.197 468.979 683.507 468.979C650.817 468.979 624.317 470.775 624.317 472.99C624.317 475.204 650.817 477 683.507 477Z" fill="#26598F"/>
<path d="M653.011 373.76C654.348 383.273 666.658 457.508 669.705 456.358C672.751 455.208 674.492 380.444 673.155 370.931C671.819 361.418 666.223 354.299 660.721 355.077C655.218 355.854 651.674 364.216 653.011 373.76Z" fill="#FAB9AF"/>
<path d="M655.031 293.68C653.135 307.452 649 385.449 658.668 386.941C668.336 388.433 689.351 302.322 691.248 288.551C693.144 274.779 686.802 262.531 677.134 261.225C667.466 259.92 656.896 279.784 655.031 293.68Z" fill="#43494C"/>
<path d="M671.756 441.126V459.218L674.865 469.508C674.92 469.674 674.934 469.85 674.906 470.022C674.879 470.194 674.811 470.357 674.707 470.497C674.603 470.637 674.468 470.75 674.311 470.827C674.155 470.904 673.982 470.942 673.808 470.938H666.627V468.638L663.176 470.938C663.176 470.938 644.524 471.964 643.995 470.938C641.633 467.083 652.389 465.591 660.285 462.545C668.181 459.498 662.741 429.53 662.741 429.53L671.756 441.126Z" fill="#FAB9AF"/>
<path d="M692.864 373.76C694.201 383.273 706.511 457.508 709.558 456.327C712.604 455.146 714.345 380.444 713.009 370.931C711.672 361.418 706.076 354.299 700.574 355.077C695.071 355.854 691.527 364.216 692.864 373.76Z" fill="#FAB9AF"/>
<path d="M663.673 446.41H672.75C674.025 423.22 674.025 377.211 673.154 370.931C671.818 361.387 666.222 354.3 660.72 355.077C655.217 355.854 651.735 364.216 653.072 373.729C653.849 379.853 659.072 424.028 663.673 446.41Z" fill="#43494C"/>
<path d="M685.31 285.256C684.999 299.151 689.755 387.283 699.516 387.501C709.278 387.718 720.376 310.125 720.687 296.229C720.998 282.333 713.319 260.728 703.558 260.479C693.796 260.23 685.621 271.36 685.31 285.256Z" fill="#43494C"/>
<path d="M711.609 441.126V459.218L714.718 469.508C714.773 469.674 714.787 469.85 714.759 470.022C714.732 470.194 714.664 470.357 714.56 470.497C714.456 470.637 714.321 470.75 714.164 470.827C714.008 470.904 713.835 470.942 713.661 470.938H706.511V468.638L703.029 470.938C703.029 470.938 684.377 471.933 683.848 470.938C681.486 467.052 692.242 465.591 700.138 462.545C708.034 459.498 702.594 429.53 702.594 429.53L711.609 441.126Z" fill="#FAB9AF"/>
<path d="M672.129 460.68C669.474 462.174 666.471 462.935 663.425 462.887C662.309 462.882 661.196 462.778 660.098 462.576C652.233 465.685 641.446 467.084 643.964 470.938C644.617 471.964 663.145 470.938 663.145 470.938L666.596 468.638V470.938H673.777C673.951 470.942 674.124 470.904 674.28 470.827C674.437 470.751 674.572 470.638 674.676 470.497C674.779 470.357 674.848 470.194 674.875 470.022C674.903 469.85 674.889 469.674 674.834 469.508L672.129 460.68Z" fill="#415050"/>
<path d="M711.61 459.467C708.678 461.591 705.125 462.684 701.507 462.575C701.009 462.575 700.543 462.575 700.045 462.575C692.18 465.684 681.393 467.114 683.818 470.969C684.471 471.964 702.999 470.969 702.999 470.969L706.481 468.669V470.969H713.631C713.805 470.973 713.977 470.935 714.134 470.858C714.29 470.781 714.426 470.668 714.53 470.528C714.633 470.388 714.702 470.225 714.729 470.053C714.757 469.881 714.742 469.704 714.687 469.539L711.61 459.467Z" fill="#415050"/>
<path d="M706.823 170.637L655.125 166.969C652.732 166.798 650.332 167.197 648.123 168.133C645.914 169.069 643.959 170.516 642.418 172.355C640.876 174.193 639.793 176.372 639.257 178.71C638.721 181.049 638.747 183.481 639.333 185.808L661.653 274.312C662.952 279.443 665.959 283.979 670.18 287.172C674.402 290.365 679.585 292.024 684.875 291.876C690.375 291.714 695.638 289.607 699.731 285.93C703.823 282.254 706.479 277.245 707.227 271.794L719.071 185.714C719.318 183.91 719.192 182.074 718.701 180.321C718.21 178.567 717.364 176.933 716.216 175.52C715.068 174.107 713.642 172.944 712.026 172.104C710.41 171.264 708.639 170.765 706.823 170.637Z" fill="#FA968C"/>
<path d="M706.821 170.637L690.998 169.518C691.402 171.04 691.462 172.634 691.173 174.182C690.885 175.731 690.254 177.195 689.328 178.47C688.402 179.744 687.204 180.796 685.82 181.549C684.437 182.302 682.903 182.737 681.33 182.823C672.284 183.414 668.429 174.709 670.512 168.057L654.968 166.969C652.575 166.798 650.176 167.197 647.967 168.133C645.758 169.069 643.802 170.516 642.261 172.355C640.72 174.193 639.636 176.372 639.1 178.71C638.564 181.049 638.59 183.481 639.176 185.808L661.497 274.312C662.795 279.443 665.802 283.979 670.024 287.172C674.245 290.365 679.428 292.024 684.719 291.876C696.065 291.534 715.37 287.431 716.925 276.333L718.914 185.87C719.184 184.066 719.081 182.226 718.61 180.464C718.139 178.702 717.311 177.055 716.176 175.627C715.042 174.198 713.627 173.018 712.017 172.16C710.408 171.301 708.64 170.783 706.821 170.637Z" fill="#E3792F"/>
<path d="M657.301 139.333C657.923 142.707 659.221 145.92 661.118 148.779C663.015 151.638 665.47 154.083 668.337 155.968C671.204 157.853 674.422 159.139 677.798 159.747C681.175 160.355 684.639 160.274 687.984 159.509C698.242 157.27 693.952 138.991 692.242 131.126C690.533 123.261 681.393 120.836 671.134 123.075C660.876 125.313 655.591 131.437 657.301 139.333Z" fill="#43494C"/>
<path d="M672.751 169.519H691L688.792 136.971L677.725 146.204L672.751 169.519Z" fill="#FA968C"/>
<path d="M720.035 211.703C735.299 227.775 754.231 234.459 758.272 230.729C762.313 226.998 752.801 209.403 738.407 193.424C723.517 177.041 708.875 166.845 703.03 172.409C697.186 177.974 704.771 195.631 720.035 211.703Z" fill="#FAB9AF"/>
<path d="M738.407 193.549C723.517 177.166 708.875 166.969 703.03 172.534C697.186 178.098 704.025 193.86 717.734 209.216C717.734 209.216 735.734 202.346 738.407 193.549Z" fill="#E3792F"/>
<path d="M729.392 227.651C720.75 229.92 682.45 242.852 683.725 247.733C684.999 252.614 725.817 246.241 734.304 243.536C749.847 238.593 760.385 232.438 759.173 227.557C757.961 222.677 738.003 225.381 729.392 227.651Z" fill="#FAB9AF"/>
<path d="M661.217 149.903C664.077 163.084 668.056 169.021 674.833 167.56C683.071 165.757 691.527 154.442 689.164 143.561C686.802 132.681 680.646 127.458 672.377 129.261C664.108 131.064 658.854 139.022 661.217 149.903Z" fill="#FAB9AF"/>
<path d="M687.953 139.364L667.062 143.903C664.981 144.353 662.812 144.158 660.845 143.344C660.93 140.03 662.125 136.84 664.239 134.287C666.353 131.733 669.263 129.963 672.502 129.261C679.497 127.707 685.061 131.375 687.953 139.364Z" fill="#FF9669"/>
<path d="M690.704 136.722L666.643 141.946C665.275 142.243 663.861 142.268 662.483 142.019C661.106 141.77 659.79 141.251 658.613 140.494C657.435 139.736 656.418 138.754 655.62 137.604C654.822 136.453 654.258 135.157 653.961 133.789L652.932 129.049L677.053 123.812C679.8 123.216 682.672 123.735 685.037 125.256C687.401 126.777 689.065 129.175 689.661 131.922L690.704 136.722Z" fill="#43494C"/>
<path d="M685.59 146.359L682.979 134.391L677.756 135.51L679.217 142.256C679.522 143.642 680.364 144.852 681.558 145.621C682.752 146.39 684.201 146.655 685.59 146.359Z" fill="#43494C"/>
<path d="M683.073 144.462C683.85 148.068 685.622 150.679 688.575 150.088C691.528 149.498 692.305 144.12 691.528 140.514C690.751 136.908 688.668 136.441 685.746 137.063C682.824 137.685 682.295 140.856 683.073 144.462Z" fill="#FAB9AF"/>
<path d="M677.724 249.071H651.052C650.186 249.077 649.349 248.763 648.7 248.189C648.052 247.615 647.639 246.822 647.539 245.962L643.125 208.658C643.048 208.153 643.082 207.637 643.224 207.146C643.366 206.656 643.612 206.201 643.945 205.815C644.279 205.428 644.692 205.118 645.157 204.906C645.622 204.693 646.127 204.584 646.637 204.585H673.341C674.205 204.586 675.039 204.903 675.686 205.475C676.332 206.048 676.748 206.837 676.854 207.694L681.237 244.999C681.313 245.504 681.28 246.019 681.138 246.51C680.996 247.001 680.75 247.455 680.416 247.842C680.083 248.229 679.67 248.539 679.205 248.751C678.74 248.963 678.235 249.072 677.724 249.071Z" fill="#A5C8CD"/>
<path d="M676.016 250.531H649.343C648.477 250.537 647.64 250.223 646.992 249.649C646.343 249.075 645.93 248.282 645.83 247.422L641.416 210.118C641.359 209.622 641.407 209.12 641.558 208.645C641.708 208.169 641.957 207.731 642.289 207.358C642.62 206.985 643.027 206.687 643.482 206.482C643.937 206.277 644.43 206.171 644.929 206.17H671.508C672.372 206.171 673.205 206.487 673.852 207.06C674.499 207.632 674.915 208.421 675.021 209.279L679.404 246.583C679.46 247.068 679.415 247.56 679.272 248.027C679.129 248.494 678.891 248.927 678.573 249.298C678.255 249.668 677.863 249.969 677.423 250.182C676.983 250.394 676.504 250.513 676.016 250.531Z" fill="#C8E6EB"/>
<path d="M683.693 237.723C683.693 237.723 690.159 243.164 689.258 245.588C688.356 248.013 687.144 249.661 683.382 248.355C679.316 246.669 675.69 244.074 672.782 240.77C670.698 237.922 669.323 234.618 668.771 231.133C669.611 228.242 673.248 233.558 674.989 236.045C676.73 238.532 679.248 241.174 680.18 239.93C681.113 238.687 677.072 234.179 677.756 232.407C678.44 230.635 683.693 237.723 683.693 237.723Z" fill="#FAB9AF"/>
<path d="M703.465 446.41H712.387C713.662 423.22 713.879 377.211 713.009 370.931C711.672 361.387 706.077 354.3 700.574 355.077C695.072 355.854 691.59 364.216 692.927 373.729C693.704 379.853 698.895 424.028 703.465 446.41Z" fill="#43494C"/>
</svg>
