<svg width="1920" height="1080" viewBox="0 0 1920 1080" fill="none" xmlns="http://www.w3.org/2000/svg">
<rect width="1920" height="1080" fill="white"/>
<g clip-path="url(#clip0)">
<rect width="1920" height="1080" fill="white"/>
<path d="M0 0H1920V1080H0V0Z" fill="url(#paint0_radial)"/>
<path d="M-620.991 1041.16H169.191" stroke="#4485CB" stroke-miterlimit="10"/>
<path d="M1406.65 928.995H2231.41" stroke="#4485CB" stroke-miterlimit="10"/>
<path d="M850.073 975.041H1022.14" stroke="#4485CB" stroke-miterlimit="10"/>
<path d="M730.281 269.078H739.75V276.156H730.281V292H721.562V276.156H690.484V271.047L721.047 223.75H730.281V269.078ZM700.328 269.078H721.562V235.609L720.531 237.484L700.328 269.078ZM790.375 262.891C790.375 273.047 788.641 280.594 785.172 285.531C781.703 290.469 776.281 292.938 768.906 292.938C761.625 292.938 756.234 290.531 752.734 285.719C749.234 280.875 747.422 273.656 747.297 264.062V252.484C747.297 242.453 749.031 235 752.5 230.125C755.969 225.25 761.406 222.812 768.812 222.812C776.156 222.812 781.562 225.172 785.031 229.891C788.5 234.578 790.281 241.828 790.375 251.641V262.891ZM781.703 251.031C781.703 243.688 780.672 238.344 778.609 235C776.547 231.625 773.281 229.938 768.812 229.938C764.375 229.938 761.141 231.609 759.109 234.953C757.078 238.297 756.031 243.438 755.969 250.375V264.25C755.969 271.625 757.031 277.078 759.156 280.609C761.312 284.109 764.562 285.859 768.906 285.859C773.188 285.859 776.359 284.203 778.422 280.891C780.516 277.578 781.609 272.359 781.703 265.234V251.031ZM838.094 269.078H847.562V276.156H838.094V292H829.375V276.156H798.297V271.047L828.859 223.75H838.094V269.078ZM808.141 269.078H829.375V235.609L828.344 237.484L808.141 269.078Z" fill="#4485CB"/>
<path d="M138.959 837.147H-6.55802C-12.5339 837.147 -18.265 839.521 -22.4906 843.747C-26.7162 847.972 -29.0902 853.703 -29.0902 859.679C-29.101 862.645 -28.526 865.584 -27.3985 868.327C-26.271 871.07 -24.613 873.564 -22.5196 875.665C-20.4262 877.766 -17.9387 879.433 -15.1996 880.57C-12.4605 881.708 -9.52389 882.293 -6.55802 882.293H138.959V837.147Z" stroke="#4485CB" stroke-miterlimit="10"/>
<path d="M138.956 859.679H277.59" stroke="#4485CB" stroke-miterlimit="10"/>
<path d="M277.589 873.441V845.993L340.679 850.417V869.016L277.589 873.441Z" stroke="#4485CB" stroke-miterlimit="10"/>
<path d="M556.578 684.175L557.069 874.346C557.095 886.832 562.075 898.796 570.916 907.612L572.145 908.841C574.111 910.83 576.453 912.41 579.034 913.487C581.614 914.565 584.384 915.12 587.18 915.12C589.977 915.12 592.746 914.565 595.327 913.487C597.908 912.41 600.249 910.83 602.215 908.841V908.841C606.208 904.863 611.615 902.63 617.251 902.63C622.887 902.63 628.293 904.863 632.286 908.841V908.841C634.252 910.83 636.593 912.41 639.174 913.487C641.755 914.565 644.524 915.12 647.321 915.12C650.118 915.12 652.887 914.565 655.468 913.487C658.049 912.41 660.39 910.83 662.356 908.841V908.841C666.349 904.863 671.755 902.63 677.391 902.63C683.027 902.63 688.433 904.863 692.426 908.841V908.841C694.392 910.83 696.733 912.41 699.314 913.487C701.895 914.565 704.664 915.12 707.461 915.12C710.258 915.12 713.027 914.565 715.608 913.487C718.189 912.41 720.53 910.83 722.496 908.841V908.841C726.489 904.863 731.895 902.63 737.531 902.63C743.167 902.63 748.574 904.863 752.566 908.841V908.841C754.533 910.83 756.874 912.41 759.455 913.487C762.036 914.565 764.805 915.12 767.602 915.12C770.398 915.12 773.168 914.565 775.748 913.487C778.329 912.41 780.671 910.83 782.637 908.841C787.024 904.466 790.506 899.269 792.882 893.546C795.258 887.824 796.482 881.689 796.484 875.493V684.175C796.484 668.422 793.381 652.824 787.353 638.271C781.325 623.717 772.489 610.494 761.35 599.355C750.212 588.216 736.988 579.381 722.435 573.353C707.881 567.324 692.283 564.222 676.531 564.222C644.717 564.222 614.207 576.86 591.711 599.355C569.215 621.851 556.578 652.361 556.578 684.175V684.175Z" stroke="#4485CB" stroke-miterlimit="10"/>
<path d="M644.255 710.799L610.907 677.533" stroke="#4485CB" stroke-miterlimit="10"/>
<path d="M610.907 710.799L644.255 677.533" stroke="#4485CB" stroke-miterlimit="10"/>
<path d="M742.578 710.799L709.23 677.533" stroke="#4485CB" stroke-miterlimit="10"/>
<path d="M709.23 710.799L742.578 677.533" stroke="#4485CB" stroke-miterlimit="10"/>
<path d="M1264.91 584.045L1213.95 533.082" stroke="#4485CB" stroke-miterlimit="10"/>
<path d="M1213.95 584.045L1264.91 533.082" stroke="#4485CB" stroke-miterlimit="10"/>
<path d="M1415.18 584.045L1364.22 533.082" stroke="#4485CB" stroke-miterlimit="10"/>
<path d="M1364.22 584.045L1415.18 533.082" stroke="#4485CB" stroke-miterlimit="10"/>
<path d="M1536.61 443.039H1092.44V769.633H1536.61V443.039Z" stroke="#4485CB" stroke-miterlimit="10"/>
<path d="M1508.26 473.517H1120.87V739.068H1508.26V473.517Z" stroke="#4485CB" stroke-miterlimit="10"/>
<path d="M1378.72 769.63H1250.33V833.622H1378.72V769.63Z" stroke="#4485CB" stroke-miterlimit="10"/>
<path d="M1240.17 833.623H1388.96C1396.98 833.623 1404.67 836.808 1410.34 842.478C1416.01 848.148 1419.19 855.838 1419.19 863.857H1209.93C1209.93 855.838 1213.12 848.148 1218.79 842.478C1224.46 836.808 1232.15 833.623 1240.17 833.623V833.623Z" stroke="#4485CB" stroke-miterlimit="10"/>
<path d="M1264.91 631.981H1415.18" stroke="#4485CB" stroke-miterlimit="10"/>
<path d="M1389.7 631.981H1340.04V680.159C1340.04 686.678 1342.63 692.93 1347.24 697.54C1351.85 702.15 1358.1 704.739 1364.62 704.739C1371.14 704.739 1377.39 702.15 1382 697.54C1386.61 692.93 1389.2 686.678 1389.2 680.159L1389.7 631.981Z" stroke="#4485CB" stroke-miterlimit="10"/>
<path d="M2316.55 823.46H1804.29C1793.16 823.46 1782.49 819.04 1774.62 811.173C1766.76 803.305 1762.34 792.635 1762.34 781.509C1762.33 775.993 1763.4 770.529 1765.51 765.43C1767.61 760.331 1770.7 755.696 1774.6 751.792C1778.49 747.888 1783.12 744.791 1788.22 742.677C1793.31 740.564 1798.77 739.476 1804.29 739.476H2316.55C2322.07 739.465 2327.54 740.545 2332.64 742.654C2337.75 744.762 2342.39 747.858 2346.29 751.763C2350.2 755.668 2353.29 760.306 2355.4 765.411C2357.51 770.515 2358.59 775.986 2358.58 781.509V781.509C2358.58 787.025 2357.49 792.487 2355.38 797.582C2353.26 802.677 2350.17 807.305 2346.26 811.202C2342.36 815.098 2337.72 818.187 2332.63 820.29C2327.53 822.393 2322.06 823.47 2316.55 823.46V823.46Z" stroke="#4485CB" stroke-miterlimit="10"/>
<path d="M1863.78 805.027C1876.77 805.027 1887.29 794.499 1887.29 781.511C1887.29 768.524 1876.77 757.996 1863.78 757.996C1850.79 757.996 1840.26 768.524 1840.26 781.511C1840.26 794.499 1850.79 805.027 1863.78 805.027Z" stroke="#4485CB" stroke-miterlimit="10"/>
<path d="M2252.64 739.481H1868.28L1843.7 599.536H2277.22L2252.64 739.481Z" stroke="#4485CB" stroke-miterlimit="10"/>
<path d="M1852.06 646.89H2090.16" stroke="#4485CB" stroke-miterlimit="10"/>
<path d="M2029.78 535.294H1858.78L1875.17 457.456H2029.78V535.294Z" stroke="#4485CB" stroke-miterlimit="10"/>
<path d="M1938.58 457.456L1893.19 510.714" stroke="#4485CB" stroke-miterlimit="10"/>
<path d="M1944.24 496.376L1909.25 535.296" stroke="#4485CB" stroke-miterlimit="10"/>
<path d="M2090.17 515.876V421.979H1841L1800.03 599.532H2315.49L2296.23 515.876H2090.17Z" stroke="#4485CB" stroke-miterlimit="10"/>
<path d="M1769.39 384.864H1699.33V454.919H1769.39V384.864Z" stroke="#4485CB" stroke-linejoin="bevel"/>
<path d="M1700.73 326.115H1640.59V386.256H1700.73V326.115Z" stroke="#4485CB" stroke-linejoin="bevel"/>
<path d="M1640.91 274.416H1588.88V326.445H1640.91V274.416Z" stroke="#4485CB" stroke-linejoin="bevel"/>
<path d="M1589.05 230.335H1544.8V274.58H1589.05V230.335Z" stroke="#4485CB" stroke-linejoin="bevel"/>
<path d="M1545.62 192.559H1507.02V231.151H1545.62V192.559Z" stroke="#4485CB" stroke-linejoin="bevel"/>
<path d="M1507.77 160.854H1475.32V193.301H1507.77V160.854Z" stroke="#4485CB" stroke-linejoin="bevel"/>
<path d="M1836.49 441.318L1487.2 141.763L1456.23 172.734L1804.7 579.133L1836.49 441.318Z" stroke="#4485CB" stroke-miterlimit="10"/>
<path d="M1833.14 456.149H1770.62V534.315H1815.03L1833.14 456.149Z" stroke="#4485CB" stroke-linejoin="bevel"/>
<path d="M1456.23 172.732V267.695" stroke="#4485CB" stroke-linejoin="bevel"/>
<path d="M1470.24 281.627C1470.39 283.551 1470.14 285.486 1469.5 287.308C1468.87 289.131 1467.86 290.803 1466.55 292.219C1465.24 293.635 1463.65 294.764 1461.88 295.537C1460.11 296.31 1458.2 296.708 1456.27 296.708C1454.34 296.708 1452.43 296.31 1450.66 295.537C1448.89 294.764 1447.3 293.635 1445.99 292.219C1444.68 290.803 1443.68 289.131 1443.04 287.308C1442.41 285.486 1442.15 283.551 1442.3 281.627C1442.57 278.106 1444.16 274.818 1446.75 272.419C1449.34 270.019 1452.74 268.687 1456.27 268.687C1459.8 268.687 1463.2 270.019 1465.79 272.419C1468.38 274.818 1469.97 278.106 1470.24 281.627V281.627Z" stroke="#4485CB" stroke-linejoin="bevel"/>
<path d="M1432.39 344.551C1432.37 349.29 1433.76 353.927 1436.39 357.874C1439.01 361.82 1442.74 364.9 1447.12 366.721C1451.49 368.542 1456.31 369.022 1460.96 368.102C1465.61 367.181 1469.88 364.901 1473.23 361.55C1476.58 358.199 1478.86 353.929 1479.78 349.28C1480.7 344.631 1480.22 339.814 1478.4 335.439C1476.58 331.064 1473.5 327.328 1469.55 324.706C1465.61 322.083 1460.97 320.691 1456.23 320.708V292.03" stroke="#4485CB" stroke-linejoin="bevel"/>
<path d="M313.236 384.862H-93.5717C-98.4665 384.895 -103.319 383.958 -107.851 382.108C-112.383 380.257 -116.503 377.528 -119.976 374.078C-123.449 370.628 -126.205 366.526 -128.085 362.006C-129.966 357.487 -130.934 352.64 -130.934 347.746V347.746C-130.934 337.902 -127.024 328.461 -120.063 321.5C-113.102 314.539 -103.661 310.629 -93.8175 310.629H312.99C322.834 310.629 332.275 314.539 339.236 321.5C346.197 328.461 350.107 337.902 350.107 347.746V347.746C350.107 357.547 346.231 366.951 339.323 373.904C332.415 380.858 323.038 384.797 313.236 384.862V384.862Z" stroke="#4485CB" stroke-miterlimit="10"/>
<path d="M256.208 310.957C256.208 272.125 240.782 234.883 213.323 207.424C185.865 179.965 148.623 164.539 109.79 164.539C70.9578 164.539 33.7157 179.965 6.257 207.424C-21.2017 234.883 -36.6279 272.125 -36.6279 310.957V310.957H256.208Z" stroke="#4485CB" stroke-miterlimit="10"/>
<path d="M109.872 371.263C122.859 371.263 133.387 360.735 133.387 347.748C133.387 334.761 122.859 324.232 109.872 324.232C96.8846 324.232 86.3564 334.761 86.3564 347.748C86.3564 360.735 96.8846 371.263 109.872 371.263Z" stroke="#4485CB" stroke-miterlimit="10"/>
<path d="M19.7419 371.263C32.7291 371.263 43.2573 360.735 43.2573 347.748C43.2573 334.761 32.7291 324.232 19.7419 324.232C6.75472 324.232 -3.77344 334.761 -3.77344 347.748C-3.77344 360.735 6.75472 371.263 19.7419 371.263Z" stroke="#4485CB" stroke-miterlimit="10"/>
<path d="M290.127 371.263C303.114 371.263 313.643 360.735 313.643 347.748C313.643 334.761 303.114 324.232 290.127 324.232C277.14 324.232 266.612 334.761 266.612 347.748C266.612 360.735 277.14 371.263 290.127 371.263Z" stroke="#4485CB" stroke-miterlimit="10"/>
<path d="M199.998 371.263C212.985 371.263 223.514 360.735 223.514 347.748C223.514 334.761 212.985 324.232 199.998 324.232C187.011 324.232 176.483 334.761 176.483 347.748C176.483 360.735 187.011 371.263 199.998 371.263Z" stroke="#4485CB" stroke-miterlimit="10"/>
<path d="M-13.0317 687.615L19.7423 384.864H200L240.967 687.615" stroke="#4485CB" stroke-miterlimit="10"/>
<path d="M65.7086 456.149L54.8931 739.481" stroke="#4485CB" stroke-miterlimit="10"/>
<path d="M138.956 522.841L147.641 653.445" stroke="#4485CB" stroke-miterlimit="10"/>
<path d="M1022.14 438.775L953.069 366.426C977.929 339.663 991.972 304.628 992.48 268.104C992.48 174.534 898.583 98.6621 782.808 98.6621C667.034 98.6621 573.054 174.534 573.054 268.104C573.054 361.674 666.952 437.464 782.808 437.464C821.129 437.553 858.944 428.716 893.257 411.654L1022.14 438.775Z" stroke="#4485CB" stroke-miterlimit="10"/>
<path d="M1229.43 187.728H1185.35" stroke="#4485CB" stroke-miterlimit="10"/>
<path d="M1207.39 209.768V165.687" stroke="#4485CB" stroke-miterlimit="10"/>
<path d="M1292.36 297.03L1261.14 265.895" stroke="#4485CB" stroke-miterlimit="10"/>
<path d="M1261.14 297.03L1292.36 265.895" stroke="#4485CB" stroke-miterlimit="10"/>
<path d="M1048.44 122.424C1046.5 122.44 1044.61 121.882 1043 120.821C1041.38 119.759 1040.12 118.242 1039.37 116.462C1038.62 114.682 1038.41 112.719 1038.78 110.822C1039.15 108.926 1040.07 107.181 1041.43 105.809C1042.79 104.437 1044.53 103.5 1046.42 103.117C1048.31 102.734 1050.28 102.923 1052.07 103.658C1053.85 104.394 1055.38 105.643 1056.45 107.248C1057.53 108.854 1058.1 110.742 1058.1 112.674C1058.1 115.246 1057.09 117.713 1055.28 119.539C1053.47 121.366 1051.01 122.402 1048.44 122.424Z" stroke="#4485CB" stroke-miterlimit="10"/>
<path d="M1150.69 249.424C1158.11 249.424 1164.13 243.407 1164.13 235.986C1164.13 228.565 1158.11 222.549 1150.69 222.549C1143.27 222.549 1137.25 228.565 1137.25 235.986C1137.25 243.407 1143.27 249.424 1150.69 249.424Z" stroke="#4485CB" stroke-miterlimit="10"/>
<path d="M400.574 90.6338V134.715" stroke="#4485CB" stroke-miterlimit="10"/>
<path d="M422.618 112.674H378.537" stroke="#4485CB" stroke-miterlimit="10"/>
<path d="M597.467 27.71L566.332 58.9273" stroke="#4485CB" stroke-miterlimit="10"/>
<path d="M597.467 58.9273L566.332 27.71" stroke="#4485CB" stroke-miterlimit="10"/>
<path d="M360.098 192.645C365.483 192.645 369.849 188.28 369.849 182.895C369.849 177.51 365.483 173.145 360.098 173.145C354.713 173.145 350.348 177.51 350.348 182.895C350.348 188.28 354.713 192.645 360.098 192.645Z" stroke="#4485CB" stroke-miterlimit="10"/>
<path d="M475.71 281.954C483.132 281.954 489.148 275.938 489.148 268.516C489.148 261.095 483.132 255.079 475.71 255.079C468.289 255.079 462.273 261.095 462.273 268.516C462.273 275.938 468.289 281.954 475.71 281.954Z" stroke="#4485CB" stroke-miterlimit="10"/>
</g>
<defs>
<radialGradient id="paint0_radial" cx="0" cy="0" r="1" gradientUnits="userSpaceOnUse" gradientTransform="translate(948.25 540) scale(948.25 1685.78)">
<stop stop-color="#235E9D"/>
<stop offset="1" stop-color="#2968AC"/>
</radialGradient>
<clipPath id="clip0">
<rect width="1920" height="1080" fill="white"/>
</clipPath>
</defs>
</svg>
